<svg width="106" height="105" viewBox="0 0 106 105" fill="none" xmlns="http://www.w3.org/2000/svg">
<g filter="url(#filter0_d_246_5187)">
<path d="M90.7578 48.7246C90.7578 71.3364 72.2097 89.7246 49.2578 89.7246C26.3059 89.7246 7.75781 71.3364 7.75781 48.7246C7.75781 26.1128 26.3059 7.72461 49.2578 7.72461C72.2097 7.72461 90.7578 26.1128 90.7578 48.7246Z" fill="white" stroke="#DF044D" stroke-width="6"/>
<path d="M49.2578 34.611L32.0078 44.0201L38.2805 47.4387V56.8478L49.2578 62.8382L60.2351 56.8478V47.4387L63.3715 45.7294V56.5655H66.5078V44.0201L49.2578 34.611ZM59.9528 44.0201L49.2578 49.8537L38.5628 44.0201L49.2578 38.1864L59.9528 44.0201ZM57.0987 54.9973L49.2578 59.2628L41.4169 54.9973V49.148L49.2578 53.4291L57.0987 49.148V54.9973Z" fill="#3E3E3E"/>
</g>
<defs>
<filter id="filter0_d_246_5187" x="0.757812" y="0.724609" width="105" height="104" filterUnits="userSpaceOnUse" color-interpolation-filters="sRGB">
<feFlood flood-opacity="0" result="BackgroundImageFix"/>
<feColorMatrix in="SourceAlpha" type="matrix" values="0 0 0 0 0 0 0 0 0 0 0 0 0 0 0 0 0 0 127 0" result="hardAlpha"/>
<feOffset dx="4" dy="4"/>
<feGaussianBlur stdDeviation="4"/>
<feComposite in2="hardAlpha" operator="out"/>
<feColorMatrix type="matrix" values="0 0 0 0 0 0 0 0 0 0 0 0 0 0 0 0 0 0 0.15 0"/>
<feBlend mode="normal" in2="BackgroundImageFix" result="effect1_dropShadow_246_5187"/>
<feBlend mode="normal" in="SourceGraphic" in2="effect1_dropShadow_246_5187" result="shape"/>
</filter>
</defs>
</svg>
