<svg width="106" height="105" viewBox="0 0 106 105" fill="none" xmlns="http://www.w3.org/2000/svg">
<g filter="url(#filter0_d_246_2114)">
<path d="M90.7578 48.7246C90.7578 71.3364 72.2097 89.7246 49.2578 89.7246C26.3059 89.7246 7.75781 71.3364 7.75781 48.7246C7.75781 26.1128 26.3059 7.72461 49.2578 7.72461C72.2097 7.72461 90.7578 26.1128 90.7578 48.7246Z" fill="white" stroke="#DF044D" stroke-width="6"/>
<path d="M49.2578 42.1466C51.0024 42.1466 52.6756 42.8397 53.9092 44.0733C55.1428 45.3069 55.8359 46.9801 55.8359 48.7247C55.8359 50.4693 55.1428 52.1424 53.9092 53.376C52.6756 54.6097 51.0024 55.3027 49.2578 55.3027C47.5132 55.3027 45.8401 54.6097 44.6064 53.376C43.3728 52.1424 42.6798 50.4693 42.6798 48.7247C42.6798 46.9801 43.3728 45.3069 44.6064 44.0733C45.8401 42.8397 47.5132 42.1466 49.2578 42.1466ZM49.2578 45.4356C48.3855 45.4356 47.5489 45.7822 46.9321 46.399C46.3153 47.0158 45.9688 47.8524 45.9688 48.7247C45.9688 49.597 46.3153 50.4335 46.9321 51.0503C47.5489 51.6672 48.3855 52.0137 49.2578 52.0137C50.1301 52.0137 50.9667 51.6672 51.5835 51.0503C52.2003 50.4335 52.5468 49.597 52.5468 48.7247C52.5468 47.8524 52.2003 47.0158 51.5835 46.399C50.9667 45.7822 50.1301 45.4356 49.2578 45.4356ZM45.9688 65.1698C45.5577 65.1698 45.2123 64.8738 45.1465 64.4791L44.5381 60.1211C43.502 59.71 42.614 59.1509 41.7588 58.4931L37.664 60.154C37.3022 60.2856 36.8582 60.154 36.6609 59.7922L33.3718 54.1022C33.158 53.7404 33.2567 53.2964 33.5692 53.0497L37.0391 50.3198L36.924 48.7247L37.0391 47.0801L33.5692 44.3996C33.2567 44.1529 33.158 43.7089 33.3718 43.3471L36.6609 37.6571C36.8582 37.2953 37.3022 37.1473 37.664 37.2953L41.7588 38.9398C42.614 38.2985 43.502 37.7393 44.5381 37.3282L45.1465 32.9702C45.2123 32.5756 45.5577 32.2795 45.9688 32.2795H52.5468C52.958 32.2795 53.3033 32.5756 53.3691 32.9702L53.9776 37.3282C55.0136 37.7393 55.9016 38.2985 56.7568 38.9398L60.8516 37.2953C61.2134 37.1473 61.6574 37.2953 61.8548 37.6571L65.1438 43.3471C65.3576 43.7089 65.2589 44.1529 64.9465 44.3996L61.4765 47.0801L61.5917 48.7247L61.4765 50.3692L64.9465 53.0497C65.2589 53.2964 65.3576 53.7404 65.1438 54.1022L61.8548 59.7922C61.6574 60.154 61.2134 60.302 60.8516 60.154L56.7568 58.5095C55.9016 59.1509 55.0136 59.71 53.9776 60.1211L53.3691 64.4791C53.3033 64.8738 52.958 65.1698 52.5468 65.1698H45.9688ZM48.0244 35.5686L47.416 39.8607C45.4425 40.2719 43.6994 41.3244 42.4331 42.788L38.4698 41.0777L37.2364 43.2155L40.7064 45.7645C40.0485 47.6886 40.0485 49.7771 40.7064 51.6848L37.22 54.2502L38.4534 56.3881L42.4495 54.6778C43.7158 56.125 45.4425 57.1774 47.3995 57.5721L48.008 61.8807H50.5076L51.1161 57.5886C53.0731 57.1774 54.7998 56.125 56.0661 54.6778L60.0623 56.3881L61.2956 54.2502L57.8093 51.7012C58.4671 49.7771 58.4671 47.6886 57.8093 45.7645L61.2792 43.2155L60.0458 41.0777L56.0825 42.788C54.8163 41.3244 53.0731 40.2719 51.0997 39.8772L50.4912 35.5686H48.0244Z" fill="#3E3E3E"/>
</g>
<defs>
<filter id="filter0_d_246_2114" x="0.757812" y="0.724609" width="105" height="104" filterUnits="userSpaceOnUse" color-interpolation-filters="sRGB">
<feFlood flood-opacity="0" result="BackgroundImageFix"/>
<feColorMatrix in="SourceAlpha" type="matrix" values="0 0 0 0 0 0 0 0 0 0 0 0 0 0 0 0 0 0 127 0" result="hardAlpha"/>
<feOffset dx="4" dy="4"/>
<feGaussianBlur stdDeviation="4"/>
<feComposite in2="hardAlpha" operator="out"/>
<feColorMatrix type="matrix" values="0 0 0 0 0 0 0 0 0 0 0 0 0 0 0 0 0 0 0.15 0"/>
<feBlend mode="normal" in2="BackgroundImageFix" result="effect1_dropShadow_246_2114"/>
<feBlend mode="normal" in="SourceGraphic" in2="effect1_dropShadow_246_2114" result="shape"/>
</filter>
</defs>
</svg>
