<svg width="41" height="41" viewBox="0 0 41 41" fill="none" xmlns="http://www.w3.org/2000/svg">
<g id="icons roadmap">
<g id="Group 16">
<path id="Vector" d="M23.8032 20.9144C23.8617 20.4298 23.9055 19.9452 23.9055 19.4459C23.9055 18.9466 23.8617 18.4619 23.8032 17.9773H26.2746C26.3916 18.4472 26.4647 18.9392 26.4647 19.4459C26.4647 19.9525 26.3916 20.4445 26.2746 20.9144M22.509 24.9971C22.9477 24.182 23.284 23.3009 23.518 22.383H25.675C24.9731 23.5946 23.8544 24.5345 22.509 24.9971ZM22.3262 20.9144H18.9042C18.831 20.4298 18.7872 19.9452 18.7872 19.4459C18.7872 18.9466 18.831 18.4546 18.9042 17.9773H22.3262C22.392 18.4546 22.4431 18.9466 22.4431 19.4459C22.4431 19.9452 22.392 20.4298 22.3262 20.9144ZM20.6152 25.2908C20.0083 24.4096 19.5184 23.433 19.2186 22.383H22.0117C21.712 23.433 21.2221 24.4096 20.6152 25.2908ZM17.6904 16.5087H15.5553C16.2499 15.2898 17.376 14.3499 18.7141 13.8947C18.2753 14.7097 17.9463 15.5909 17.6904 16.5087ZM15.5553 22.383H17.6904C17.9463 23.3009 18.2753 24.182 18.7141 24.9971C17.376 24.5345 16.2499 23.5946 15.5553 22.383ZM14.9557 20.9144C14.8387 20.4445 14.7656 19.9525 14.7656 19.4459C14.7656 18.9392 14.8387 18.4472 14.9557 17.9773H17.4272C17.3687 18.4619 17.3248 18.9466 17.3248 19.4459C17.3248 19.9452 17.3687 20.4298 17.4272 20.9144M20.6152 13.5936C21.2221 14.4748 21.712 15.4587 22.0117 16.5087H19.2186C19.5184 15.4587 20.0083 14.4748 20.6152 13.5936ZM25.675 16.5087H23.518C23.284 15.5909 22.9477 14.7097 22.509 13.8947C23.8544 14.3573 24.9731 15.2898 25.675 16.5087ZM20.6152 12.103C16.5717 12.103 13.3032 15.4073 13.3032 19.4459C13.3032 21.3933 14.0736 23.261 15.4448 24.638C16.1238 25.3199 16.9299 25.8608 17.817 26.2298C18.7041 26.5988 19.6549 26.7887 20.6152 26.7887C22.5544 26.7887 24.4142 26.0151 25.7855 24.638C27.1567 23.261 27.9271 21.3933 27.9271 19.4459C27.9271 18.4816 27.738 17.5268 27.3705 16.6359C27.0031 15.745 26.4645 14.9355 25.7855 14.2537C25.1065 13.5719 24.3004 13.031 23.4133 12.662C22.5262 12.293 21.5754 12.103 20.6152 12.103Z" fill="#3E3E3E"/>
<path id="Vector_2" d="M20.6118 7.14697C12.2093 7.14697 5.33447 12.6394 5.33447 19.4205C5.41086 22.719 6.95387 25.8181 9.53574 27.8586C9.53574 28.7791 8.89409 31.1878 5.33447 34.7624C8.9552 34.5937 12.4232 33.2282 15.2189 30.9269C16.9605 31.4332 18.7938 31.694 20.6118 31.694C29.0144 31.694 35.8892 26.2016 35.8892 19.4205C35.8892 12.6394 29.0144 7.14697 20.6118 7.14697ZM20.6118 28.6257C13.8592 28.6257 8.38994 24.4987 8.38994 19.4205C8.38994 14.3423 13.8592 10.2154 20.6118 10.2154C27.3644 10.2154 32.8337 14.3423 32.8337 19.4205C32.8337 24.4987 27.3644 28.6257 20.6118 28.6257Z" fill="#3E3E3E"/>
</g>
</g>
</svg>
