<svg width="139" height="24" viewBox="0 0 139 24" fill="none" xmlns="http://www.w3.org/2000/svg">
<path fill-rule="evenodd" clip-rule="evenodd" d="M49.1809 6.7992C50.0449 7.18793 50.8059 7.77364 51.4028 8.50938C52.076 9.36747 52.574 10.3495 52.8686 11.3996C53.1918 12.6017 53.3469 13.8427 53.3296 15.0873C53.354 16.3342 53.1892 17.5775 52.841 18.775C52.579 19.7784 52.1181 20.7189 51.4857 21.5408C50.8977 22.2912 50.1349 22.8863 49.2639 23.274C48.3642 23.6833 47.385 23.888 46.3967 23.8733C45.29 23.9047 44.1946 23.6439 43.2207 23.1173C42.316 22.6105 41.5924 21.8337 41.151 20.8954H40.8836C40.8851 21.2358 40.8177 21.5729 40.6854 21.8865C40.5537 22.1983 40.3618 22.481 40.1205 22.7183C39.8792 22.9556 39.5934 23.1429 39.2794 23.2694C38.9636 23.3984 38.625 23.4627 38.2838 23.4584H36.5505V2.57679C36.5518 1.89296 36.8243 1.23756 37.3082 0.754452C37.7922 0.271344 38.4481 -1.09029e-06 39.1319 0H41.0173V9.17776H41.3077C41.5088 8.71944 41.7862 8.2986 42.1282 7.93317C42.4629 7.56685 42.8534 7.25571 43.2852 7.01125C43.7361 6.74567 44.2217 6.54398 44.728 6.41199C46.2154 6.05954 47.7767 6.19531 49.1809 6.7992ZM47.5998 18.6229C47.9491 18.1481 48.2055 17.6117 48.3558 17.0418V17.0648C48.5438 16.3693 48.6338 15.651 48.6232 14.9306C48.6312 14.2331 48.5412 13.5379 48.3558 12.8655C48.2006 12.2988 47.9445 11.7647 47.5998 11.289C47.2893 10.8614 46.8775 10.5177 46.4013 10.2887C45.8999 10.0565 45.3543 9.93545 44.8018 9.93374C44.2485 9.9282 43.7013 10.0496 43.2022 10.2887C42.7193 10.5171 42.2999 10.8606 41.9807 11.289C41.6312 11.7651 41.3675 12.2986 41.2017 12.8655C41.0163 13.5458 40.9263 14.2485 40.9343 14.9536C40.9237 15.6528 41.0138 16.3498 41.2017 17.0233C41.365 17.5912 41.6288 18.1252 41.9807 18.5999C42.2951 19.0328 42.7158 19.3773 43.2022 19.6001C43.6981 19.8482 44.2475 19.9702 44.8018 19.9551C45.3555 19.965 45.9037 19.8434 46.4013 19.6001C46.871 19.3714 47.2812 19.0369 47.5998 18.6229ZM10.4048 16.5347V3.84444C10.4005 3.50175 10.4647 3.16165 10.5937 2.84414C10.724 2.52878 10.9151 2.24215 11.1561 2.00059C11.3992 1.75809 11.6873 1.56547 12.0043 1.4336C12.3217 1.30423 12.6619 1.23996 13.0046 1.2446H15.0697V16.5347C15.0845 17.6226 14.9114 18.7048 14.558 19.7338C14.2456 20.6173 13.7344 21.4172 13.0638 22.0718C12.3933 22.7263 11.5813 23.2181 10.6905 23.5091C8.65368 24.1636 6.46293 24.1636 4.42607 23.5091C3.55068 23.2048 2.7484 22.7213 2.07055 22.0893C1.4001 21.472 0.875708 20.713 0.535541 19.8675C0.167795 18.9329 -0.0138467 17.9354 0.000822661 16.9312H4.44911C4.42237 17.3276 4.48052 17.7252 4.61967 18.0974C4.75924 18.4688 4.97787 18.8055 5.26043 19.0841C5.54298 19.3626 5.88272 19.5765 6.25609 19.7108C6.63084 19.8455 7.02995 19.8989 7.42693 19.8675C7.83625 19.8953 8.24674 19.834 8.63004 19.6877C9.01228 19.5401 9.35932 19.314 9.64877 19.0239C10.203 18.3179 10.4727 17.4298 10.4048 16.5347ZM89.824 8.50938C89.0981 7.73014 88.2021 7.12909 87.2057 6.75311C84.9534 5.92342 82.4791 5.92342 80.2268 6.75311C79.2322 7.13511 78.3359 7.73525 77.6039 8.50938C76.8686 9.30986 76.3026 10.2506 75.9398 11.2752C75.5425 12.4635 75.3462 13.7099 75.359 14.9629C75.3438 16.2311 75.5401 17.493 75.9398 18.6966C76.2868 19.7235 76.8459 20.6658 77.5808 21.4624C78.3095 22.2405 79.2068 22.8413 80.2037 23.2187C82.476 24.016 84.9519 24.016 87.2242 23.2187C88.2261 22.8509 89.1254 22.2487 89.847 21.4624C90.5925 20.6729 91.1544 19.7285 91.4927 18.6966C91.8909 17.4927 92.0857 16.2308 92.0689 14.9629C92.0833 13.7101 91.8885 12.4638 91.4927 11.2752C91.1461 10.242 90.5764 9.2977 89.824 8.50938ZM86.4912 18.8211C86.1609 19.2419 85.7392 19.5821 85.2581 19.8161C84.7769 20.0501 84.2489 20.1716 83.7139 20.1716C83.1789 20.1716 82.6509 20.0501 82.1698 19.8161C81.6887 19.5821 81.267 19.2419 80.9366 18.8211C80.22 17.672 79.8784 16.3285 79.9594 14.9767C79.9467 14.2273 80.0367 13.4798 80.2268 12.7548C80.3596 12.1702 80.6089 11.6184 80.9597 11.1323C81.265 10.7011 81.6698 10.3501 82.1397 10.1089C82.6282 9.86305 83.1696 9.74116 83.7162 9.75397C84.2527 9.73916 84.7845 9.8563 85.2651 10.0951C85.7479 10.3345 86.1632 10.6911 86.4728 11.1323C86.8249 11.62 87.0799 12.1708 87.2242 12.7548C87.3944 13.483 87.4779 14.2288 87.4731 14.9767C87.5389 16.3204 87.1967 17.6525 86.4912 18.7981V18.8211ZM104.98 16.2674V9.09018C104.99 8.41361 105.266 7.76811 105.748 7.29356C106.231 6.819 106.881 6.5536 107.557 6.55489H109.447V20.9323C109.448 21.2707 109.382 21.6058 109.254 21.9188C109.122 22.2318 108.931 22.5166 108.691 22.7577C108.452 22.9956 108.168 23.185 107.857 23.3155C107.544 23.4437 107.209 23.5095 106.87 23.5091H105.114V20.7986H104.847C104.488 21.7118 103.851 22.4891 103.026 23.0205C102.084 23.5943 100.993 23.8736 99.8914 23.8225C99.0501 23.8366 98.2136 23.6927 97.4253 23.3985C96.7212 23.1326 96.0839 22.7156 95.5584 22.1769C95.0311 21.6042 94.6236 20.9318 94.3599 20.1994C94.0817 19.3454 93.9462 18.4515 93.9588 17.5535V9.09018C93.9546 8.74898 94.0188 8.4104 94.1478 8.0945C94.2743 7.78058 94.4616 7.49476 94.6989 7.25348C94.9362 7.01219 95.2189 6.82021 95.5307 6.68857C95.8443 6.55629 96.1814 6.48887 96.5218 6.49036H98.4117V16.4011C98.4117 18.7581 99.4566 19.9351 101.546 19.932C102.017 19.9608 102.488 19.8884 102.929 19.7199C103.369 19.5513 103.769 19.2904 104.1 18.9548C104.717 18.1994 105.029 17.241 104.976 16.2674H104.98ZM118.09 2.46615H116.205C115.521 2.46615 114.865 2.73748 114.381 3.22059C113.897 3.7037 113.625 4.3591 113.624 5.04293V6.66553C112.94 6.66675 112.286 6.93862 111.803 7.4216C111.32 7.90457 111.048 8.55928 111.047 9.24231V10.1642H113.693V18.8534C113.656 19.6068 113.761 20.3603 114.001 21.0752C114.187 21.6371 114.535 22.1312 115.002 22.495C115.523 22.9047 116.132 23.1872 116.781 23.3201C117.65 23.5105 118.538 23.6002 119.427 23.5874C119.842 23.6105 120.257 23.6105 120.672 23.5874C121.006 23.5613 121.338 23.5167 121.667 23.4538V20.0519H120.358C119.751 20.1023 119.148 19.9193 118.671 19.5402C118.479 19.3151 118.334 19.0532 118.247 18.7704C118.16 18.4871 118.13 18.1894 118.159 17.8946V10.2887H119.081C119.42 10.2893 119.755 10.223 120.068 10.0938C120.381 9.96449 120.665 9.77471 120.905 9.53532C121.144 9.29592 121.334 9.01161 121.463 8.69871C121.592 8.38581 121.659 8.05047 121.658 7.71191V6.78998H118.15L118.09 2.46615ZM139.004 14.6863V16.0691L127.268 16.0046V16.2259C127.267 16.8083 127.365 17.3866 127.558 17.9361C127.738 18.4069 128.009 18.8377 128.356 19.2037C128.688 19.567 129.1 19.8479 129.559 20.0242C130.059 20.2285 130.596 20.3274 131.135 20.3146C131.901 20.3318 132.661 20.1741 133.357 19.8537C133.914 19.5763 134.355 19.111 134.602 18.5399H138.778C138.624 19.3352 138.311 20.0911 137.856 20.7618C137.425 21.4164 136.865 21.9763 136.211 22.4074C135.528 22.867 134.778 23.2199 133.989 23.4538C133.053 23.6984 132.089 23.8178 131.122 23.8087C129.939 23.8273 128.763 23.624 127.655 23.2095C126.674 22.848 125.791 22.2605 125.078 21.4947C124.344 20.7011 123.79 19.7575 123.456 18.7289C123.077 17.5368 122.89 16.292 122.903 15.0412C122.884 13.7731 123.079 12.5109 123.479 11.3074C123.807 10.2596 124.361 9.2965 125.101 8.48632C125.813 7.71545 126.685 7.1097 127.655 6.71161C128.739 6.28728 129.894 6.076 131.057 6.08932C132.204 6.07043 133.344 6.27393 134.413 6.68857C135.363 7.04955 136.215 7.62725 136.902 8.37569C137.609 9.15191 138.146 10.0673 138.479 11.0631C138.849 12.2343 139.025 13.4582 138.999 14.6863H139.004ZM128.513 10.4869C128.174 10.8039 127.908 11.1909 127.734 11.6209V11.69C127.53 12.146 127.41 12.6346 127.379 13.1328H134.602C134.606 12.1465 134.241 11.1943 133.579 10.4639C133.255 10.1316 132.864 9.8736 132.431 9.70787C131.998 9.53846 131.535 9.46305 131.071 9.48662C130.576 9.48248 130.084 9.57323 129.624 9.75397C129.2 9.90955 128.819 10.1603 128.508 10.4869H128.513ZM71.4915 3.17604C70.7817 2.53019 69.9403 2.04581 69.0254 1.75627C67.9618 1.42381 66.853 1.25897 65.7387 1.26765H58.8243C58.1881 1.26765 57.578 1.52005 57.1277 1.96944C56.6774 2.41884 56.4239 3.02851 56.4227 3.66466C56.4449 4.16768 56.6238 4.65118 56.9343 5.04754C57.2505 5.44735 57.6868 5.73498 58.1789 5.86806C58.3549 5.94706 58.544 5.9924 58.7367 6.00174H61.5347V4.24086C61.5324 4.15055 61.5547 4.06132 61.5993 3.98272C61.6436 3.90624 61.7072 3.84268 61.7836 3.79834C61.8627 3.75541 61.9519 3.7347 62.0418 3.73841C62.1306 3.74001 62.217 3.76722 62.2907 3.81677L69.2881 7.85942C69.3625 7.9069 69.4242 7.97177 69.4679 8.04842C69.5083 8.12345 69.5289 8.20752 69.5278 8.29272C69.5293 8.37944 69.5086 8.46508 69.4679 8.54163C69.424 8.61694 69.3623 8.68028 69.2881 8.72603L62.2907 12.7733C62.2132 12.8158 62.1255 12.8365 62.0372 12.8332C61.9492 12.8317 61.8632 12.8076 61.7873 12.7632C61.7114 12.7188 61.6482 12.6556 61.6039 12.5797C61.5581 12.5031 61.5342 12.4154 61.5347 12.3261V10.8372H58.7367C58.1148 10.843 57.5193 11.0898 57.0757 11.5257C56.632 11.9616 56.3748 12.5526 56.3581 13.1743V23.3524H58.4232C58.9296 23.3468 59.4231 23.1927 59.8427 22.9091C60.2622 22.6256 60.5893 22.2252 60.7834 21.7574C60.9124 21.4431 60.9766 21.1061 60.9724 20.7664V16.5439C60.9733 16.3272 61.0305 16.1143 61.1383 15.9262C61.2475 15.7338 61.4068 15.5745 61.5993 15.4653C61.7938 15.3495 62.0187 15.295 62.2446 15.3086H64.0101C64.2375 15.3124 64.4594 15.3795 64.6508 15.5022C64.8492 15.6203 65.0093 15.7931 65.1118 16L68.9101 23.3754H69.8321C70.2708 23.3595 70.6986 23.2343 71.0766 23.0112C71.457 22.7869 71.7742 22.4697 71.9986 22.0893C72.2204 21.7092 72.3426 21.2792 72.3539 20.8392C72.3652 20.3992 72.2651 19.9635 72.0631 19.5725L69.4172 14.5941C70.0377 14.3557 70.6153 14.0178 71.1274 13.5938C71.6205 13.171 72.0478 12.6769 72.395 12.1279C72.7413 11.5701 73.0038 10.9644 73.174 10.3302C73.3526 9.6705 73.4425 8.98997 73.4414 8.30655C73.4583 7.28864 73.2766 6.27717 72.9067 5.32872C72.5884 4.52015 72.1049 3.78695 71.4869 3.17604H71.4915ZM29.4379 6.75311C30.4348 7.13054 31.3321 7.73132 32.0608 8.50938C32.8118 9.29796 33.3799 10.2422 33.7248 11.2752C34.1222 12.4635 34.3185 13.7099 34.3057 14.9629C34.3299 16.2317 34.1334 17.4951 33.7248 18.6966C33.3866 19.7285 32.8247 20.6729 32.0792 21.4624C31.3584 22.2476 30.4609 22.8496 29.4609 23.2187C27.1873 24.017 24.7095 24.017 22.4359 23.2187C21.4389 22.8413 20.5417 22.2405 19.813 21.4624C19.078 20.6658 18.5189 19.7235 18.172 18.6966C17.7797 17.4917 17.5912 16.2298 17.6142 14.9629C17.5939 13.7112 17.7824 12.4648 18.172 11.2752C18.5348 10.2506 19.1008 9.30986 19.836 8.50938C20.5733 7.73079 21.4782 7.1302 22.482 6.75311C23.589 6.33301 24.7644 6.122 25.9484 6.13081C27.1399 6.12234 28.3228 6.33329 29.4379 6.75311ZM27.4926 19.8168C27.9734 19.5809 28.3954 19.2407 28.728 18.8211C29.43 17.6743 29.7705 16.3427 29.7053 14.9997C29.7117 14.2521 29.6297 13.5063 29.4609 12.7779C29.3131 12.1944 29.0566 11.6439 28.705 11.1553C28.232 10.4854 27.5303 10.0116 26.7322 9.82308C25.9341 9.63459 25.0946 9.74446 24.3719 10.132C23.9019 10.3732 23.4971 10.7242 23.1919 11.1553C22.841 11.6414 22.5918 12.1933 22.4589 12.7779C22.2711 13.5033 22.1812 14.2505 22.1916 14.9997C22.1131 16.3513 22.4544 17.6941 23.1688 18.8441C23.5014 19.2638 23.9235 19.604 24.4042 19.8398C24.8854 20.0735 25.4134 20.1949 25.9484 20.1949C26.4834 20.1949 27.0114 20.0735 27.4926 19.8398V19.8168Z" fill="#DF044D"/>
</svg>
