<svg width="106" height="105" viewBox="0 0 106 105" fill="none" xmlns="http://www.w3.org/2000/svg">
<g filter="url(#filter0_d_246_2036)">
<path d="M90.7578 48.7246C90.7578 71.3364 72.2097 89.7246 49.2578 89.7246C26.3059 89.7246 7.75781 71.3364 7.75781 48.7246C7.75781 26.1128 26.3059 7.72461 49.2578 7.72461C72.2097 7.72461 90.7578 26.1128 90.7578 48.7246Z" fill="white" stroke="#DF044D" stroke-width="6"/>
<path d="M60.5206 40.9487C61.3372 40.9487 61.9989 41.2314 62.5198 41.7828C63.0548 42.3625 63.3363 42.9987 63.3363 43.7763V59.3282C63.3363 60.1058 63.0548 60.742 62.5198 61.3216C61.9989 61.873 61.3372 62.1558 60.5206 62.1558H37.9949C37.1784 62.1558 36.5167 61.873 35.9958 61.3216C35.4608 60.742 35.1792 60.1058 35.1792 59.3282V43.7763C35.1792 42.9987 35.4608 42.3625 35.9958 41.7828C36.5167 41.2314 37.1784 40.9487 37.9949 40.9487H43.6263V38.1211C43.6263 37.3011 43.9079 36.6366 44.4429 36.1135C44.9638 35.5762 45.6255 35.2935 46.442 35.2935H52.0735C52.89 35.2935 53.5517 35.5762 54.0726 36.1135C54.6076 36.6366 54.8892 37.3011 54.8892 38.1211V40.9487H60.5206ZM37.9949 43.7763V59.3282H60.5206V43.7763H37.9949ZM52.0735 40.9487V38.1211H46.442V40.9487H52.0735Z" fill="#3E3E3E"/>
</g>
<defs>
<filter id="filter0_d_246_2036" x="0.757812" y="0.724609" width="105" height="104" filterUnits="userSpaceOnUse" color-interpolation-filters="sRGB">
<feFlood flood-opacity="0" result="BackgroundImageFix"/>
<feColorMatrix in="SourceAlpha" type="matrix" values="0 0 0 0 0 0 0 0 0 0 0 0 0 0 0 0 0 0 127 0" result="hardAlpha"/>
<feOffset dx="4" dy="4"/>
<feGaussianBlur stdDeviation="4"/>
<feComposite in2="hardAlpha" operator="out"/>
<feColorMatrix type="matrix" values="0 0 0 0 0 0 0 0 0 0 0 0 0 0 0 0 0 0 0.15 0"/>
<feBlend mode="normal" in2="BackgroundImageFix" result="effect1_dropShadow_246_2036"/>
<feBlend mode="normal" in="SourceGraphic" in2="effect1_dropShadow_246_2036" result="shape"/>
</filter>
</defs>
</svg>
