<svg width="41" height="41" viewBox="0 0 41 41" fill="none" xmlns="http://www.w3.org/2000/svg">
<g id="icons roadmap">
<path id="Vector" d="M5.35449 10.5H35.4222V30.6299H5.35449V10.5ZM20.3884 15.5325C21.7174 15.5325 22.9921 16.0627 23.9319 17.0064C24.8717 17.9502 25.3997 19.2302 25.3997 20.5649C25.3997 21.8996 24.8717 23.1797 23.9319 24.1234C22.9921 25.0672 21.7174 25.5974 20.3884 25.5974C19.0593 25.5974 17.7846 25.0672 16.8448 24.1234C15.905 23.1797 15.3771 21.8996 15.3771 20.5649C15.3771 19.2302 15.905 17.9502 16.8448 17.0064C17.7846 16.0627 19.0593 15.5325 20.3884 15.5325ZM12.0362 13.855C12.0362 14.7448 11.6842 15.5981 11.0577 16.2273C10.4312 16.8565 9.58141 17.21 8.69535 17.21V23.9199C9.58141 23.9199 10.4312 24.2734 11.0577 24.9026C11.6842 25.5318 12.0362 26.3851 12.0362 27.2749H28.7405C28.7405 26.3851 29.0925 25.5318 29.719 24.9026C30.3456 24.2734 31.1953 23.9199 32.0814 23.9199V17.21C31.1953 17.21 30.3456 16.8565 29.719 16.2273C29.0925 15.5981 28.7405 14.7448 28.7405 13.855H12.0362Z" fill="#3E3E3E"/>
</g>
</svg>
