<svg width="41" height="41" viewBox="0 0 41 41" fill="none" xmlns="http://www.w3.org/2000/svg">
<g id="icons roadmap">
<path id="Vector" d="M31.8746 12.789C32.6912 12.789 33.3529 13.0718 33.8738 13.6232C34.4088 14.2028 34.6903 14.839 34.6903 15.6166V31.1685C34.6903 31.9461 34.4088 32.5823 33.8738 33.162C33.3529 33.7134 32.6912 33.9961 31.8746 33.9961H9.34892C8.53236 33.9961 7.87067 33.7134 7.34976 33.162C6.81477 32.5823 6.5332 31.9461 6.5332 31.1685V15.6166C6.5332 14.839 6.81477 14.2028 7.34976 13.6232C7.87067 13.0718 8.53236 12.789 9.34892 12.789H14.9803V9.9614C14.9803 9.14139 15.2619 8.47691 15.7969 7.9538C16.3178 7.41655 16.9795 7.13379 17.7961 7.13379H23.4275C24.244 7.13379 24.9057 7.41655 25.4266 7.9538C25.9616 8.47691 26.2432 9.14139 26.2432 9.9614V12.789H31.8746ZM9.34892 15.6166V31.1685H31.8746V15.6166H9.34892ZM23.4275 12.789V9.9614H17.7961V12.789H23.4275Z" fill="#3E3E3E"/>
</g>
</svg>
